G04 #@! TF.FileFunction,Copper,L2,Bot,Signal*
%FSLAX46Y46*%
G04 Gerber Fmt 4.6, Leading zero omitted, Abs format (unit mm)*
G04 Created by KiCad (PCBNEW 4.0.4-stable) date 11/11/17 19:23:41*
%MOMM*%
%LPD*%
G01*
G04 APERTURE LIST*
%ADD10C,0.100000*%
%ADD11R,2.000000X2.000000*%
%ADD12C,2.000000*%
%ADD13C,1.524000*%
%ADD14C,5.999480*%
%ADD15C,1.400000*%
%ADD16O,1.400000X1.400000*%
G04 APERTURE END LIST*
D10*
D11*
X160020000Y-113030000D03*
D12*
X160020000Y-118030000D03*
D13*
X165500000Y-105500000D03*
X165500000Y-102960000D03*
X165500000Y-100420000D03*
X165500000Y-97880000D03*
X165500000Y-95340000D03*
X165500000Y-92800000D03*
X155340000Y-105500000D03*
X155340000Y-102960000D03*
X155340000Y-100420000D03*
X155340000Y-97880000D03*
X155340000Y-95340000D03*
X155340000Y-92800000D03*
D14*
X147320000Y-116840000D03*
X147320000Y-109220000D03*
X147320000Y-101600000D03*
D15*
X174500000Y-105500000D03*
D16*
X169420000Y-105500000D03*
D13*
X201089000Y-97875000D03*
X201089000Y-100415000D03*
X201089000Y-102955000D03*
X201089000Y-105495000D03*
X201089000Y-108035000D03*
X201089000Y-110575000D03*
X201089000Y-113115000D03*
X201089000Y-115655000D03*
X201089000Y-118195000D03*
X201089000Y-120735000D03*
X178229000Y-120735000D03*
X178229000Y-118195000D03*
X178229000Y-115655000D03*
X178229000Y-113115000D03*
X178229000Y-110575000D03*
X178229000Y-108035000D03*
X178229000Y-105495000D03*
X178229000Y-102955000D03*
X178229000Y-100415000D03*
X178229000Y-97875000D03*
D14*
X156210000Y-132080000D03*
X163830000Y-132080000D03*
X163830000Y-83820000D03*
X156210000Y-83820000D03*
M02*
