M48
;DRILL file {KiCad 4.0.4-stable} date 11/11/17 19:24:07
;FORMAT={-:-/ absolute / metric / decimal}
FMAT,2
METRIC,TZ
T1C0.700
T2C0.762
T3C1.000
T4C2.499
%
G90
G05
M71
T1
X169.42Y-105.5
X174.5Y-105.5
T2
X155.34Y-92.8
X155.34Y-95.34
X155.34Y-97.88
X155.34Y-100.42
X155.34Y-102.96
X155.34Y-105.5
X165.5Y-92.8
X165.5Y-95.34
X165.5Y-97.88
X165.5Y-100.42
X165.5Y-102.96
X165.5Y-105.5
X178.229Y-97.875
X178.229Y-100.415
X178.229Y-102.955
X178.229Y-105.495
X178.229Y-108.035
X178.229Y-110.575
X178.229Y-113.115
X178.229Y-115.655
X178.229Y-118.195
X178.229Y-120.735
X201.089Y-97.875
X201.089Y-100.415
X201.089Y-102.955
X201.089Y-105.495
X201.089Y-108.035
X201.089Y-110.575
X201.089Y-113.115
X201.089Y-115.655
X201.089Y-118.195
X201.089Y-120.735
T3
X160.02Y-113.03
X160.02Y-118.03
T4
X147.32Y-101.6
X147.32Y-109.22
X147.32Y-116.84
X156.21Y-83.82
X156.21Y-132.08
X163.83Y-83.82
X163.83Y-132.08
T0
M30
